<?xml version="1.0" encoding="utf-8"?>
<!-- Generator: Adobe Illustrator 26.2.1, SVG Export Plug-In . SVG Version: 6.00 Build 0)  -->
<svg version="1.1" id="Layer_1" xmlns="http://www.w3.org/2000/svg" xmlns:xlink="http://www.w3.org/1999/xlink" x="0px" y="0px"
	 viewBox="0 0 17 17" style="enable-background:new 0 0 17 17;" xml:space="preserve">
<style type="text/css">
	.st0{fill:#FFFFFF;}
</style>
<path class="st0" d="M8.3,6.4c0.4,0,0.8-0.2,1-0.5c0.2-0.2,0.3-0.6,0.3-1.1V3.2c0-0.5-0.1-0.9-0.3-1.1c-0.2-0.3-0.6-0.5-1-0.5
	c-0.4,0-0.8,0.2-1,0.5C7.1,2.3,7,2.7,7,3.2v1.7c0,0.5,0.1,0.9,0.3,1.1C7.5,6.3,7.9,6.4,8.3,6.4z M7.9,3c0-0.4,0.1-0.7,0.4-0.7
	c0.3,0,0.4,0.2,0.4,0.7v2c0,0.4-0.1,0.7-0.4,0.7C8,5.6,7.9,5.4,7.9,5C7.9,5,7.9,3,7.9,3z M10.4,6.1c0-0.1-0.1-0.4-0.1-0.7V1.6h0.9
	v3.5c0,0.2,0,0.3,0,0.3c0,0.1,0.1,0.2,0.2,0.2c0.2,0,0.4-0.1,0.5-0.4V1.6h0.9v4.7h-0.9V5.8c-0.3,0.4-0.7,0.6-1,0.6
	C10.6,6.4,10.4,6.3,10.4,6.1z M13.6,11.8v0.4h-0.9v-0.4c0-0.4,0.1-0.6,0.4-0.6C13.5,11.2,13.6,11.4,13.6,11.8z M4.4,1.8
	C4.1,1.2,3.9,0.6,3.7,0h1l0.7,2.5L6.1,0h1L5.9,3.8v2.6H4.9V3.8C4.8,3.3,4.7,2.7,4.4,1.8z M15.3,8.8c-0.2-0.8-0.8-1.3-1.5-1.4
	C12,7.2,10.3,7.2,8.5,7.2S5,7.2,3.2,7.4C2.5,7.5,1.9,8,1.7,8.8C1.5,9.8,1.5,11,1.5,12.1c0,1.1,0,2.3,0.2,3.3
	c0.2,0.8,0.8,1.3,1.5,1.4C5,17,6.7,17,8.5,17s3.5,0,5.3-0.2c0.7-0.1,1.3-0.6,1.5-1.4c0.2-1.1,0.2-2.2,0.2-3.3
	C15.5,11,15.5,9.8,15.3,8.8z M5.5,9.7h-1v5.4H3.5V9.7h-1V8.9h3V9.7z M8,15.1H7.2v-0.5c-0.3,0.4-0.7,0.6-1,0.6
	c-0.3,0-0.5-0.1-0.6-0.4c0-0.1-0.1-0.4-0.1-0.7v-3.7h0.8v3.5c0,0.2,0,0.3,0,0.3c0,0.1,0.1,0.2,0.2,0.2c0.2,0,0.4-0.1,0.5-0.4v-3.6H8
	C8,10.5,8,15.1,8,15.1z M11.3,13.7c0,0.4,0,0.7-0.1,0.9c-0.1,0.3-0.3,0.5-0.7,0.5c-0.3,0-0.6-0.2-0.9-0.5v0.5H8.8V8.9h0.8v2.1
	c0.3-0.3,0.6-0.5,0.9-0.5c0.3,0,0.6,0.2,0.7,0.5c0.1,0.2,0.1,0.5,0.1,0.9C11.3,11.9,11.3,13.7,11.3,13.7z M14.5,13h-1.7v0.8
	c0,0.4,0.1,0.7,0.4,0.7c0.2,0,0.3-0.1,0.4-0.3c0,0,0-0.2,0-0.6h0.9v0.1c0,0.3,0,0.5,0,0.6c0,0.2-0.1,0.4-0.2,0.5
	c-0.2,0.3-0.6,0.5-1,0.5c-0.4,0-0.8-0.2-1-0.5c-0.2-0.2-0.3-0.6-0.3-1.1V12c0-0.5,0.1-0.9,0.3-1.1c0.2-0.3,0.6-0.5,1-0.5
	c0.4,0,0.8,0.2,1,0.5c0.2,0.2,0.3,0.6,0.3,1.1L14.5,13L14.5,13z M10.4,11.8v2c0,0.4-0.1,0.6-0.4,0.6c-0.1,0-0.3-0.1-0.4-0.2v-2.9
	c0.1-0.1,0.3-0.2,0.4-0.2C10.3,11.2,10.4,11.4,10.4,11.8z"/>
</svg>
